Coordinates
version=1
nRows=16
nColumns=40
inDegrees=yes

Units are S.I. units (second, meters, Newtons, ...)
Angles are in degrees.

endheader
time	pelvis_tilt	pelvis_list	pelvis_rotation	pelvis_tx	pelvis_ty	pelvis_tz	hip_flexion_r	hip_adduction_r	hip_rotation_r	knee_angle_r	knee_angle_r_beta	ankle_angle_r	subtalar_angle_r	mtp_angle_r	hip_flexion_l	hip_adduction_l	hip_rotation_l	knee_angle_l	knee_angle_l_beta	ankle_angle_l	subtalar_angle_l	mtp_angle_l	lumbar_extension	lumbar_bending	lumbar_rotation	arm_flex_r	arm_add_r	arm_rot_r	elbow_flex_r	pro_sup_r	wrist_flex_r	wrist_dev_r	arm_flex_l	arm_add_l	arm_rot_l	elbow_flex_l	pro_sup_l	wrist_flex_l	wrist_dev_l
     48.28250000	     -5.07334368	     -4.50110689	     10.25640638	      1.15914002	      0.92137461	      0.49343038	      0.86002909	      1.31930071	    -17.37800131	     16.28582801	     16.28582801	     17.73239595	     -2.90227098	     -2.23726357	     27.41558909	     -5.31364529	      3.56302389	     24.09031475	     24.09031475	      5.44772671	    -10.11634498	      1.09873686	     -8.30302083	      3.41898989	      6.02618693	     66.09902204	    -17.97122708	      0.14185232	     73.38543093	     44.53377959	      0.00000000	      0.00000000	    -15.35033369	    -13.21455490	     20.34686298	     35.03630599	     43.11656903	      0.00000000	      0.00000000
     48.30342857	     -5.34292187	     -4.64686232	      9.72729610	      1.15977067	      0.92204645	      0.48822800	      0.87286646	      0.99907223	    -17.08816154	     16.36024808	     16.36024808	     17.35667300	     -2.51924699	     -2.20019590	     27.26366334	     -5.28411160	      3.17838166	     24.15068043	     24.15068043	      5.77753107	    -10.37348177	      1.07003154	     -8.31049718	      3.57284416	      5.95356679	     65.73654590	    -17.64961609	      0.28204173	     73.04470651	     44.54092228	      0.00000000	      0.00000000	    -14.64226501	    -13.51309308	     20.24774340	     35.21882293	     43.14361222	      0.00000000	      0.00000000
     48.32435714	     -5.60620402	     -4.65019856	      9.15633689	      1.16033678	      0.92273018	      0.48282258	      1.01516037	      0.29206486	    -17.58349459	     16.81410903	     16.81410903	     17.05748454	     -0.88262957	     -2.84942636	     27.04474969	     -5.14713066	      2.56334422	     24.20371402	     24.20371402	      6.52956791	    -10.20973024	      1.86261182	     -8.12767071	      3.63064783	      5.48679397	     66.18268517	    -16.57912166	      0.33346451	     68.92486343	     44.72054324	      0.00000000	      0.00000000	    -14.20131758	    -13.79173977	     20.11973812	     35.55136546	     43.29142898	      0.00000000	      0.00000000
     48.34528571	     -5.84353061	     -4.71554791	      8.53859610	      1.16084473	      0.92349223	      0.47761344	      1.34664666	     -0.25829231	    -17.29419003	     17.53369759	     17.53369759	     16.66802917	     -0.50409956	     -3.02566626	     26.70919720	     -5.09899633	      1.95466094	     24.04435510	     24.04435510	      6.92228619	    -10.18053469	      1.84675292	     -8.08795882	      3.71074088	      5.67524051	     65.54164143	    -16.62447840	      0.25651560	     67.65837943	     44.77413736	      0.00000000	      0.00000000	    -13.29314351	    -14.10417201	     19.86674017	     35.91416005	     43.36879780	      0.00000000	      0.00000000
     48.36621429	     -5.94188159	     -4.99744266	      7.98185067	      1.16139675	      0.92447861	      0.47250846	      1.47563863	     -0.48408438	    -16.99739295	     18.01502243	     18.01502243	     16.02993631	     -0.22020780	     -2.97796868	     26.32101344	     -5.24422696	      1.60161059	     23.96644633	     23.96644633	      7.30524235	    -10.38798389	      1.76897903	     -8.24471261	      4.03709345	      5.39149033	     64.74034056	    -16.46054803	      0.33352328	     67.20835396	     44.78431689	      0.00000000	      0.00000000	    -12.48499983	    -14.30491471	     19.76564844	     36.13858876	     43.39571638	      0.00000000	      0.00000000
     48.38714286	     -6.19635544	     -4.92424192	      7.27734607	      1.16166724	      0.92504734	      0.46733394	      2.53621506	     -1.45577658	    -16.76701742	     20.07229929	     20.07229929	     15.64331652	      0.08985191	     -4.01127854	     25.96111103	     -5.10216732	      0.73437465	     23.76193660	     23.76193660	      7.70363977	    -10.14764869	      1.60671066	     -8.03426563	      4.06771002	      5.70703389	     64.00590958	    -16.34159514	     -0.22354948	     63.55980340	     44.94413649	      0.00000000	      0.00000000	    -11.27419439	    -14.51808044	     19.51357020	     36.36540335	     43.50678553	      0.00000000	      0.00000000
     48.40807143	     -6.23231672	     -4.87117616	      6.62973196	      1.16213142	      0.92607444	      0.46220854	      3.38714213	     -2.25629796	    -16.14983927	     22.05226686	     22.05226686	     14.98573884	     -0.30266961	     -4.57171481	     25.26514465	     -4.94777255	      0.06932415	     23.36260153	     23.36260153	      8.06911652	    -10.11026819	      1.53232065	     -8.14990555	      4.09877929	      5.52304018	     62.69838275	    -16.13400602	     -0.35580708	     62.00054317	     45.00250065	      0.00000000	      0.00000000	    -10.25365223	    -14.73799098	     19.33500685	     36.59491201	     43.56417435	      0.00000000	      0.00000000
     48.42900000	     -6.26109507	     -4.97195924	      5.98523216	      1.16245399	      0.92684303	      0.45731897	      4.53176044	     -2.82866806	    -15.16689307	     24.36258334	     24.36258334	     13.35117429	     -1.79772804	     -7.32880676	     24.75303340	     -4.92669715	     -0.39337397	     23.22661816	     23.22661816	      8.37090805	    -10.37455591	      1.26032682	     -8.10423841	      4.36048886	      4.94930503	     62.33926570	    -14.70040861	     -1.87644378	     56.82042602	     45.26939842	      0.00000000	      0.00000000	     -9.20141063	    -14.75319464	     18.86853470	     36.43970610	     43.79080477	      0.00000000	      0.00000000
     48.44992857	     -6.21132111	     -4.99839429	      5.34895174	      1.16280128	      0.92757909	      0.45247700	      5.99132178	     -3.50045905	    -14.03676175	     27.38622397	     27.38622397	     11.64692917	     -3.72721243	     -9.86579689	     24.15842661	     -4.81552772	     -0.82041371	     23.10958081	     23.10958081	      8.70094462	    -10.70620745	      1.07911081	     -8.19450336	      4.53943085	      4.76689447	     60.88890148	    -14.26453830	     -2.92692680	     54.01240801	     45.42632255	      0.00000000	      0.00000000	     -7.96612281	    -14.80219883	     18.11393421	     36.66755404	     44.06649290	      0.00000000	      0.00000000
     48.47085714	     -6.09202981	     -4.94234551	      4.72402144	      1.16314026	      0.92812120	      0.44769790	      7.82971628	     -4.28172493	    -12.81914299	     31.27513170	     31.27513170	     10.42590474	     -5.62039432	    -10.58344828	     23.55521789	     -4.61322132	     -1.24637560	     23.11854898	     23.11854898	      9.09770779	    -11.09830646	      1.01203499	     -8.33326658	      4.65948450	      4.79020679	     58.75217657	    -14.42695451	     -3.19191335	     52.31249570	     45.49022937	      0.00000000	      0.00000000	     -6.50069899	    -14.90842631	     17.85675545	     37.06935090	     44.14273421	      0.00000000	      0.00000000
     48.49178571	     -5.84437387	     -4.95247670	      4.14457435	      1.16350988	      0.92851563	      0.44313252	      9.73608496	     -4.73859603	    -11.14865625	     35.32112525	     35.32112525	      8.07962883	     -9.06201881	    -13.11628283	     22.97103535	     -4.44373693	     -1.41507000	     23.38187776	     23.38187776	      9.58283528	    -11.77750275	      1.12540860	     -8.49863901	      4.88642256	      4.57170261	     57.24181661	    -13.68289795	     -5.37250349	     48.10178862	     45.73720277	      0.00000000	      0.00000000	     -4.82729210	    -14.85450409	     17.54809626	     36.80831344	     44.35752680	      0.00000000	      0.00000000
     48.51271429	     -5.52440233	     -4.79071788	      3.58202593	      1.16393598	      0.92849225	      0.43856914	     11.95034091	     -5.44396359	     -9.68138062	     40.18350594	     40.18350594	      6.54741199	    -11.45584918	    -13.25342400	     22.38104595	     -4.11026958	     -1.70863803	     23.80556350	     23.80556350	     10.07134901	    -12.40249741	      1.03271968	     -8.77263500	      4.96014643	      4.44527032	     54.64030714	    -13.74375379	     -5.59820105	     46.50739057	     45.79151590	      0.00000000	      0.00000000	     -3.24905783	    -14.95650832	     17.32107158	     37.31787597	     44.42111009	      0.00000000	      0.00000000
     48.53364286	     -5.10403351	     -4.63064197	      3.09371411	      1.16435215	      0.92812485	      0.43417081	     14.18570026	     -5.93965529	     -8.08378896	     45.19070775	     45.19070775	      4.85868490	    -14.21978484	    -12.96656775	     21.85920308	     -3.74185458	     -1.82312159	     24.51170220	     24.51170220	     10.66311110	    -13.24472775	      0.95064785	     -9.14557542	      5.06934764	      4.28679393	     51.83124655	    -13.81050711	     -5.95462037	     44.60085660	     45.86302276	      0.00000000	      0.00000000	     -1.46581959	    -15.02492209	     17.11270535	     37.82032623	     44.48233221	      0.00000000	      0.00000000
     48.55457143	     -4.68609474	     -4.62382298	      2.65829693	      1.16483310	      0.92746040	      0.43006151	     16.56746785	     -5.99149104	     -6.36084287	     50.44133910	     50.44133910	      4.17552070	    -16.51749286	     -8.84762920	     21.49449058	     -3.47246404	     -1.60836438	     25.48561307	     25.48561307	     11.64882480	    -14.25306479	      2.19050273	     -9.22283538	      5.37015693	      4.36080606	     49.73615057	    -13.34799734	     -9.44536781	     39.57309950	     46.20981162	      0.00000000	      0.00000000	      0.91375515	    -14.78832488	     17.42833524	     37.13301654	     44.57987719	      0.00000000	      0.00000000
     48.57550000	     -4.15740088	     -4.47185266	      2.27592634	      1.16541756	      0.92633761	      0.42597805	     18.80440193	     -6.23658745	     -4.96484930	     55.64883554	     55.64883554	      3.99906858	    -17.72933164	     -4.31577944	     21.11521998	     -3.08212754	     -1.55544820	     26.66582632	     26.66582632	     12.60147596	    -15.09226476	      2.77938738	     -9.54727244	      5.52740329	      4.39925517	     46.51542055	    -13.43494006	    -11.25358432	     37.34996660	     46.36006660	      0.00000000	      0.00000000	      2.92821221	    -14.78735356	     17.35593341	     37.94255932	     44.69209929	      0.00000000	      0.00000000
     48.59642857	     -3.62986337	     -4.30383447	      1.96793817	      1.16600539	      0.92477994	      0.42206625	     21.00038038	     -6.43603824	     -3.72989910	     60.70531467	     60.70531467	      4.72126334	    -18.27104939	      2.16948403	     20.86567688	     -2.66765404	     -1.47235963	     28.06676402	     28.06676402	     13.77973516	    -15.76999113	      3.71175369	     -9.82102019	      5.72638636	      4.13923557	     43.23428097	    -13.19201336	    -13.19885282	     35.08323340	     46.51621773	      0.00000000	      0.00000000	      5.07419463	    -14.77096303	     17.57374314	     38.17295450	     44.78932748	      0.00000000	      0.00000000
